PathFileType	4	(X/Y/Z)	/mnt/data/output.trc
DataRate	CameraRate	NumFrames	NumMarkers	Units	OrigDataRate	OrigDataStartFrame	OrigNumFrames
100	100	12	17	mm	100	2479	3966
Frame#	Time	nosex	nosey	nosez	lefteyex	lefteyey	lefteyez	righteyex	righteyey	righteyez	leftearx	lefteary	leftearz	rightearx	righteary	rightearz	leftshoulderx	leftshouldery	leftshoulderz	rightshoulderx	rightshouldery	rightshoulderz	leftelbowx	leftelbowy	leftelbowz	rightelbowx	rightelbowy	rightelbowz	leftwristx	leftwristy	leftwristz	rightwristx	rightwristy	rightwristz	lefthipx	lefthipy	lefthipz	righthipx	righthipy	righthipz	leftkneex	leftkneey	leftkneez	rightkneex	rightkneey	rightkneez	leftanklex	leftankley	leftanklez	rightanklex	rightankley	rightanklez
		1	1	1	2	2	2	3	3	3	4	4	4	5	5	5	6	6	6	7	7	7	8	8	8	9	9	9	10	10	10	11	11	11	12	12	12	13	13	13	14	14	14	15	15	15	16	16	16	17	17	17
2479	24.79	-76.89217488241465	-572.593697623126	3284.6025593977315	-45.60200363187224	-601.0359999862408	3297.734080963026	-92.62853352313466	-603.3624230172964	3299.187659956519	10.21244686224028	-587.9995919972328	3400.237023629918	-148.56389380435206	-588.5254400339203	3403.587718592921	88.81268508360826	-404.51038968886326	3450.7427630351585	-233.13007328160043	-416.1228137770451	3453.767681129863	140.68715174090818	-129.40669613393732	3432.205101397181	-288.8702168032193	-151.21220543057498	3468.0605868691546	141.45782954501314	80.66820161259635	3396.416261993611	-302.2303506420655	64.50123385247261	3401.638880053479	24.747821608172742	20.28118904909819	3467.709378786385	-183.1209279808023	13.261885276445184	3466.3397939605607	11.295777679330596	426.5178740399664	3539.6715351749453	-156.36822798376173	429.6679557160266	3533.5742998535	17.39504656292104	791.689903678354	3546.7609535235447	-143.92900163862691	792.8454611679289	3558.35210793358
2480	24.8	-76.90228305379595	-572.5880463502875	3284.5930227619147	-43.70994800308982	-602.4559383194854	3299.2770955925566	-92.6388366749289	-603.3565907767257	3299.1782819103546	10.20536796195624	-587.9944101952628	3400.229965233229	-148.56866243668026	-588.5185896291349	3403.578046508606	88.8072563914961	-404.5060447464229	3450.7374992728296	-233.1308881535836	-416.1148711092807	3453.7573246799293	141.195291194185	-129.70464991014575	3435.167081366651	-288.868015473104	-151.20333059549074	3468.049523218928	141.45039347106697	80.68364614892218	3396.41316322497	-302.22853961280146	64.50698686248907	3401.632061236503	24.74702914828529	20.28687791712065	3467.702738338038	-183.11901585313055	13.2694829908959	3466.3300312316014	11.29608941242658	426.5237715035747	3539.664926927769	-156.36621452502533	429.6753721962885	3533.5654265999683	17.393526077761532	791.6952428099052	3546.754283019566	-143.92885258225317	792.8524647619749	3558.343898763376
2481	24.81	-76.85548791691589	-572.6268153287959	3284.589070433619	-43.66995707501447	-602.4937700305763	3299.2740966950296	-92.59285757047576	-603.395751754796	3299.174155088245	10.245446176328173	-588.0332124699214	3400.231731400418	-148.60291806828528	-589.8119924608671	3403.5810372513342	88.8493246016722	-404.544360086466	3450.743935501685	-233.49018758079032	-415.8965546697247	3451.2607609825063	141.23851981448163	-129.74130487216058	3435.177687092432	-289.2426659970261	-150.98707356656675	3465.573224544219	141.4979070318455	80.6413585587122	3396.4296710044987	-302.19058789795065	64.47624486148719	3401.6531694757077	24.788303646397583	20.25148806960979	3467.7135373148835	-183.0109394978689	14.652437577906142	3466.0976847705265	11.337582727311304	426.4910753104218	3539.67771729376	-156.3281300461641	429.6435612691717	3533.5738309884955	17.43457170945087	791.6654922088677	3546.767266537795	-143.89093021056718	792.8234175459943	3558.3537065507303
2482	24.82	-76.83423423634636	-572.6303940852067	3284.580555043301	-45.552805876740486	-601.0739774205961	3297.713521923854	-92.57303709671956	-603.400220436014	3299.167054550765	10.263603048721867	-588.0390624226228	3400.224398256481	-148.5889102920351	-589.8173796943805	3403.578815740353	88.87056390681587	-404.5450446617577	3450.7352637965014	-233.47769486583576	-415.8975972201495	3451.2618949945177	141.26253898791126	-129.73457429364217	3435.1657884350075	-289.2306827097073	-150.98067439469554	3465.575153592465	141.5195439075203	80.65813961709226	3396.408005948672	-302.17871363344153	64.49134266105374	3401.6391525973354	24.809315782154307	20.262734782186744	3467.7047951571963	-183.06552753331056	13.246041300899703	3466.332463894662	11.355705426470612	426.51420301995216	3539.6681364829915	-156.31414388891707	429.66650842540446	3533.56846924383	17.44994333279419	791.6990092142191	3546.753794353352	-143.8798437595542	792.8570816214775	3558.344744288389
2483	24.83	-76.81411023127403	-572.6443756626223	3284.5718566431315	-45.53919362045725	-601.0530198589361	3297.7066248679407	-92.55348938695754	-603.4144615733545	3299.1572332045803	10.277879837965774	-588.0201152902318	3400.220448548293	-148.57049707936238	-589.7974135788171	3403.565349320725	88.88322103797469	-404.5319052016972	3450.743637844976	-233.45549495280088	-415.88132117304616	3451.2514230173247	141.27464414388072	-129.72658918598958	3435.184047590791	-289.206791272598	-150.9695915782815	3465.5700989674638	141.52987839517343	80.66603168462939	3396.4309222988863	-302.4220939183264	66.00758774094086	3401.2135795860318	24.824317566375143	20.26863777651291	3467.720393243937	-183.2522742157797	13.245307556081189	3466.083018462883	11.37551298064359	426.51174363108527	3539.6836156550107	-156.29054838169162	429.6655554455601	3533.5755124604075	17.471634693382732	791.6905823688176	3546.7643467400408	-143.85409488239722	792.850110405392	3558.3475461510047
2484	24.84	-76.6784360345514	-572.6015883743745	3284.6220402574354	-45.432691911944765	-601.0223676192641	3297.762458238313	-92.4187717122603	-603.3725810553697	3299.2092252755747	9.9621871405472	-587.698143118061	3397.511037832169	-150.45317787081507	-589.6903773936808	3402.313581986493	88.97054262609791	-404.5035179025668	3450.817479944097	-233.35798395329616	-415.8556982660419	3451.3031650532653	141.3558115090376	-129.7005341524407	3435.261161216213	-289.1135978407022	-150.94593769067745	3465.6173497410955	141.61645473012587	80.67955131221603	3396.5087255996546	-302.3207961911939	66.04312427757486	3401.3123452708296	24.90510757632851	20.29122028159492	3467.79161116849	-183.16441208821263	13.26697125513824	3466.1385452647924	10.896923526033689	425.1169690502192	3539.771211517116	-156.2090371695599	429.6835360902811	3533.6308076841224	17.548727493167227	791.7054792751898	3546.828199456688	-143.7727007585734	792.8643158886383	3558.401651804238
2485	24.85	-74.2562832914354	-571.0086711838911	3282.8188904230155	-45.18185953147852	-601.1128118315165	3298.025604451795	-94.46187600109214	-601.8238132065867	3297.979489298116	10.643481418193227	-588.0757812080243	3400.543264276036	-150.19856229443045	-589.7781644903356	3402.591083202111	89.25256676232326	-404.57715769602345	3451.0548580486097	-233.10429405238187	-415.93526653231953	3451.5897369580016	141.63709461782773	-129.7623751433237	3435.4888144650886	-288.8652736210093	-151.0131894519208	3465.903934363708	141.92802852663343	80.59792442666149	3396.9250441635504	-303.9386501313932	66.1621055640539	3399.136954695459	25.182396993339008	20.237866166456627	3468.026078745929	-182.90601021283345	13.21089915880256	3466.4026573438678	11.68584138552106	426.4400890079624	3540.3744040264555	-158.05616974489064	428.2550190326751	3532.496246047466	17.810167375856697	791.6899979024145	3547.050453549676	-143.52299971451484	792.8487444729441	3558.6450487967213
2486	24.86	-74.40176301539259	-571.0446708232483	3282.7270735950938	-45.84700381106207	-600.8732609701021	3295.259271015432	-92.26800734778868	-603.4655368065489	3299.373272484077	10.096473629446775	-587.815016341827	3397.668615518075	-150.34228767763915	-589.8108808461411	3402.4954760466944	89.12091846646273	-404.60394359260926	3450.961086744867	-232.86168564705557	-416.2214407848195	3453.9944139811614	140.9912354133084	-129.4808064764419	3432.437413883995	-288.6166950482821	-151.29202574724164	3468.298388677816	141.80193088903593	80.56498206231726	3396.849074299635	-302.2456039455077	65.97655451631019	3401.497738794196	25.03938288567437	20.21922918546237	3467.946438699713	-183.1319619466589	11.771518109092368	3466.562182976598	12.09241423924685	427.84430293272993	3540.277016226245	-157.94947173467642	429.7551358624847	3532.118593814797	17.665537218349908	791.6923562325148	3546.977451546913	-143.6777085620364	792.8475860684003	3558.571903790835
2487	24.87	-74.18419278190626	-571.0991222240228	3282.706886146415	-45.67349500756112	-600.9240145902055	3295.2466647289484	-94.59367915768948	-603.4650606010865	3298.159847079732	10.27919843867361	-587.86575744842	3397.662369359525	-150.16909432478238	-589.8629758316374	3402.486771371452	89.30896958989574	-404.6469249147231	3450.960399439456	-232.69192442109787	-416.2666830461499	3453.991034178522	141.178032777702	-129.5123068219804	3432.441034416541	-288.25097701493195	-152.62180590365608	3468.481378859744	141.98970763049192	80.53106741194225	3396.8716505492257	-300.334187422404	65.7454788044255	3403.794641616455	25.217748648799528	20.194232063680897	3467.9511587376983	-182.96636067718543	11.74552109538113	3466.563989547818	12.266750675093368	427.8368157856726	3540.283181866369	-157.78581900347243	429.7477725127145	3532.1225018413734	17.83290611767607	791.7024157252057	3546.9775092383	-143.51918909240132	792.8574712348948	3558.572086885204
2488	24.88	-75.8350316010039	-569.9225390893872	3285.183632179449	-45.25864004436932	-599.7064217631747	3295.506747677533	-96.4171553761913	-600.4674349838976	3296.9143657996897	8.632221349218163	-586.5769962079813	3396.6165694736164	-149.77271762096018	-589.9216558377605	3402.765479448549	89.71260446888584	-404.6942520349984	3451.243020941025	-232.3020511441395	-416.3182748110584	3454.2748444711942	141.5818188771337	-129.54627503362863	3432.71819789252	-288.04531645221067	-151.02824280368662	3466.448253651695	142.40852898573272	80.48958411916749	3397.19659806778	-303.840620614813	65.91567981793804	3399.9485000533214	25.612490337436363	20.16697975676852	3468.234267161206	-183.80184951240065	12.84834501514288	3469.3666193651216	12.64726598093015	427.8284056907748	3540.562698423337	-157.67657668123465	428.22630189888986	3532.7066952162554	18.205280123835863	791.7114409161469	3547.2420264893963	-143.1563163348103	792.8665712043563	3558.8410889923016
2489	24.89	-75.96471494713363	-569.9726823340349	3285.1490627139897	-45.35552676028491	-599.7513358469896	3295.4687467996014	-96.54429994580866	-600.5180967282346	3296.878879654365	8.580265949611823	-587.8664857141631	3396.450809052992	-149.86605469114537	-589.9662425958264	3402.72871528457	89.61820865210787	-404.7322094306815	3451.198812745542	-234.70229353988077	-415.9366177539831	3449.935472196232	141.4865302008346	-129.57618385779324	3432.6700140997814	-288.1440873224715	-151.06233479464538	3466.4167397264464	142.29723696844897	80.47769195620141	3397.087614233395	-303.3947895162921	64.58435111144922	3399.7187184950994	25.514747016313173	20.13915425594124	3468.190528790868	-183.20518699640667	12.909604213880414	3466.9498213326315	12.042396432940304	426.4563849894308	3540.153242029169	-157.7693707609807	428.2090640617859	3532.672499774641	18.121638450589508	791.7072235874931	3547.2063434657007	-143.24083444206124	792.8608384103617	3558.809075993677
2490	24.9	-75.93107497401051	-569.9551501449115	3285.1507341663146	-45.34736911253464	-599.734184710256	3295.47181661159	-96.51223815333309	-600.499083258267	3296.8790797194174	8.552637547300748	-586.6039193570026	3396.573460143168	-149.85822281367786	-589.947988656957	3402.7261391020693	89.26016243782607	-404.40426875978176	3448.250651543384	-234.6916153851556	-415.9195082242483	3449.9297082348	141.51527839041947	-129.56919087237813	3432.669546615077	-288.1284979962515	-151.05126346781952	3466.413881913092	142.32361070887194	80.48225566588192	3397.089342758116	-301.8700689791346	67.35603006724509	3402.16541416031	25.54052963524289	20.145402823646464	3468.190562833341	-182.662143041022	11.69425029291821	3466.8130592765324	12.067220005902309	426.4536376069311	3540.155668144505	-157.4861001369442	429.7203452723877	3532.370229420871	18.139049309887135	791.6961042971944	3547.2139309172403	-143.22742411628738	792.8509455013991	3558.817044066285
